<?xml version="1.0" encoding="UTF-8" standalone="no"?>
<!DOCTYPE svg PUBLIC "-//W3C//DTD SVG 1.1//EN" "http://www.w3.org/Graphics/SVG/1.1/DTD/svg11.dtd">
<svg width="100%" height="100%" viewBox="0 0 56 56" version="1.1" xmlns="http://www.w3.org/2000/svg" xmlns:xlink="http://www.w3.org/1999/xlink" xml:space="preserve" style="fill-rule:evenodd;clip-rule:evenodd;stroke-linejoin:round;stroke-miterlimit:1.41421;">
    <rect id="icon-photo" x="0" y="0" width="56" height="56" style="fill:none;"/>
    <clipPath id="_clip1">
        <rect id="icon-photo1" x="0" y="0" width="56" height="56"/>
    </clipPath>
    <g clip-path="url(#_clip1)">
        <g>
            <g id="圆角矩形-30" transform="matrix(1,0,0,1,2.00001,2.00001)">
                <path d="M39.125,12L42,12L42.103,12.001L42.206,12.003L42.309,12.006L42.412,12.01L42.514,12.016L42.616,12.023L42.717,12.032L42.818,12.041L42.919,12.052L43.019,12.064L43.119,12.078L43.218,12.092L43.317,12.108L43.416,12.125L43.514,12.143L43.612,12.162L43.71,12.183L43.807,12.205L43.903,12.228L43.999,12.252L44.095,12.277L44.19,12.303L44.285,12.331L44.379,12.36L44.473,12.389L44.566,12.42L44.658,12.452L44.751,12.485L44.842,12.52L44.933,12.555L45.024,12.591L45.114,12.629L45.203,12.667L45.292,12.707L45.381,12.747L45.468,12.789L45.555,12.831L45.642,12.875L45.728,12.92L45.813,12.966L45.898,13.012L45.982,13.06L46.065,13.109L46.148,13.158L46.23,13.209L46.312,13.26L46.393,13.313L46.473,13.366L46.552,13.421L46.631,13.476L46.709,13.532L46.787,13.589L46.863,13.647L46.939,13.706L47.014,13.766L47.089,13.827L47.162,13.888L47.235,13.951L47.308,14.014L47.379,14.078L47.45,14.143L47.52,14.209L47.589,14.276L47.657,14.343L47.724,14.411L47.791,14.48L47.857,14.55L47.922,14.621L47.986,14.692L48.049,14.765L48.112,14.838L48.173,14.911L48.234,14.986L48.294,15.061L48.353,15.137L48.411,15.213L48.468,15.291L48.524,15.369L48.579,15.448L48.634,15.527L48.687,15.607L48.74,15.688L48.791,15.77L48.842,15.852L48.891,15.934L48.94,16.018L48.988,16.102L49.034,16.187L49.08,16.272L49.125,16.358L49.168,16.444L49.211,16.532L49.253,16.619L49.293,16.708L49.333,16.797L49.371,16.886L49.409,16.976L49.445,17.067L49.48,17.158L49.515,17.249L49.548,17.341L49.58,17.434L49.611,17.527L49.64,17.621L49.669,17.715L49.697,17.81L49.723,17.905L49.748,18.001L49.772,18.097L49.795,18.193L49.817,18.29L49.837,18.388L49.857,18.486L49.875,18.584L49.892,18.683L49.908,18.782L49.922,18.881L49.936,18.981L49.948,19.081L49.959,19.182L49.968,19.283L49.977,19.384L49.984,19.486L49.99,19.588L49.994,19.691L49.997,19.793L49.999,19.897L50,20L50,37L49.999,37.103L49.997,37.206L49.994,37.309L49.99,37.412L49.984,37.514L49.977,37.616L49.968,37.717L49.959,37.818L49.948,37.919L49.936,38.019L49.922,38.119L49.908,38.218L49.892,38.317L49.875,38.416L49.857,38.514L49.837,38.612L49.817,38.71L49.795,38.807L49.772,38.903L49.748,38.999L49.723,39.095L49.697,39.19L49.669,39.285L49.64,39.379L49.611,39.473L49.58,39.566L49.548,39.659L49.515,39.751L49.48,39.842L49.445,39.933L49.409,40.024L49.371,40.114L49.333,40.203L49.293,40.292L49.253,40.381L49.211,40.468L49.168,40.555L49.125,40.642L49.08,40.728L49.034,40.813L48.988,40.898L48.94,40.982L48.891,41.065L48.842,41.148L48.791,41.23L48.74,41.312L48.687,41.393L48.634,41.473L48.579,41.552L48.524,41.631L48.468,41.709L48.411,41.787L48.353,41.863L48.294,41.939L48.234,42.014L48.173,42.089L48.112,42.162L48.049,42.235L47.986,42.308L47.922,42.379L47.857,42.45L47.791,42.52L47.724,42.589L47.657,42.657L47.589,42.724L47.52,42.791L47.45,42.857L47.379,42.922L47.308,42.986L47.235,43.049L47.162,43.112L47.089,43.173L47.014,43.234L46.939,43.294L46.863,43.353L46.787,43.411L46.709,43.468L46.631,43.524L46.552,43.579L46.473,43.634L46.393,43.687L46.312,43.74L46.23,43.791L46.148,43.842L46.065,43.891L45.982,43.94L45.898,43.988L45.813,44.034L45.728,44.08L45.642,44.125L45.555,44.168L45.468,44.211L45.381,44.253L45.292,44.293L45.203,44.333L45.114,44.371L45.024,44.409L44.933,44.445L44.842,44.48L44.751,44.515L44.658,44.548L44.566,44.58L44.473,44.611L44.379,44.64L44.285,44.669L44.19,44.697L44.095,44.723L43.999,44.748L43.903,44.772L43.807,44.795L43.71,44.817L43.612,44.837L43.514,44.857L43.416,44.875L43.317,44.892L43.218,44.908L43.119,44.922L43.019,44.936L42.919,44.948L42.818,44.959L42.717,44.968L42.616,44.977L42.514,44.984L42.412,44.99L42.309,44.994L42.206,44.997L42.103,44.999L42,45L10,45L9.897,44.999L9.794,44.997L9.691,44.994L9.588,44.99L9.486,44.984L9.384,44.977L9.283,44.968L9.182,44.959L9.081,44.948L8.981,44.936L8.881,44.922L8.782,44.908L8.683,44.892L8.584,44.875L8.486,44.857L8.388,44.837L8.29,44.817L8.193,44.795L8.097,44.772L8.001,44.748L7.905,44.723L7.81,44.697L7.715,44.669L7.621,44.64L7.527,44.611L7.434,44.58L7.341,44.548L7.249,44.515L7.158,44.48L7.067,44.445L6.976,44.409L6.886,44.371L6.797,44.333L6.708,44.293L6.619,44.253L6.532,44.211L6.445,44.168L6.358,44.125L6.272,44.08L6.187,44.034L6.102,43.988L6.018,43.94L5.934,43.891L5.852,43.842L5.77,43.791L5.688,43.74L5.607,43.687L5.527,43.634L5.448,43.579L5.369,43.524L5.291,43.468L5.213,43.411L5.137,43.353L5.061,43.294L4.986,43.234L4.911,43.173L4.838,43.112L4.765,43.049L4.692,42.986L4.621,42.922L4.55,42.857L4.48,42.791L4.411,42.724L4.343,42.657L4.276,42.589L4.209,42.52L4.143,42.45L4.078,42.379L4.014,42.308L3.951,42.235L3.888,42.162L3.827,42.089L3.766,42.014L3.706,41.939L3.647,41.863L3.589,41.787L3.532,41.709L3.476,41.631L3.421,41.552L3.366,41.473L3.313,41.393L3.26,41.312L3.209,41.23L3.158,41.148L3.109,41.065L3.06,40.982L3.012,40.898L2.966,40.813L2.92,40.728L2.875,40.642L2.832,40.555L2.789,40.468L2.747,40.381L2.707,40.292L2.667,40.203L2.629,40.114L2.591,40.024L2.555,39.933L2.52,39.842L2.485,39.751L2.452,39.659L2.42,39.566L2.389,39.473L2.36,39.379L2.331,39.285L2.303,39.19L2.277,39.095L2.252,38.999L2.228,38.903L2.205,38.807L2.183,38.71L2.163,38.612L2.143,38.514L2.125,38.416L2.108,38.317L2.092,38.218L2.078,38.119L2.064,38.019L2.052,37.919L2.041,37.818L2.032,37.717L2.023,37.616L2.016,37.514L2.01,37.412L2.006,37.309L2.003,37.206L2.001,37.103L2,37L2,20L2.001,19.897L2.003,19.793L2.006,19.691L2.01,19.588L2.016,19.486L2.023,19.384L2.032,19.283L2.041,19.182L2.052,19.081L2.064,18.981L2.078,18.881L2.092,18.782L2.108,18.683L2.125,18.584L2.143,18.486L2.163,18.388L2.183,18.29L2.205,18.193L2.228,18.097L2.252,18.001L2.277,17.905L2.303,17.81L2.331,17.715L2.36,17.621L2.389,17.527L2.42,17.434L2.452,17.341L2.485,17.249L2.52,17.158L2.555,17.067L2.591,16.976L2.629,16.886L2.667,16.797L2.707,16.708L2.747,16.619L2.789,16.532L2.832,16.444L2.875,16.358L2.92,16.272L2.966,16.187L3.012,16.102L3.06,16.018L3.109,15.934L3.158,15.852L3.209,15.77L3.26,15.688L3.313,15.607L3.366,15.527L3.421,15.448L3.476,15.369L3.532,15.291L3.589,15.213L3.647,15.137L3.706,15.061L3.766,14.986L3.827,14.911L3.888,14.838L3.951,14.765L4.014,14.692L4.078,14.621L4.143,14.55L4.209,14.48L4.276,14.411L4.343,14.343L4.411,14.276L4.48,14.209L4.55,14.143L4.621,14.078L4.692,14.014L4.765,13.951L4.838,13.888L4.911,13.827L4.986,13.766L5.061,13.706L5.137,13.647L5.213,13.589L5.291,13.532L5.369,13.476L5.448,13.421L5.527,13.366L5.607,13.313L5.688,13.26L5.77,13.209L5.852,13.158L5.934,13.109L6.018,13.06L6.102,13.012L6.187,12.966L6.272,12.92L6.358,12.875L6.445,12.831L6.532,12.789L6.619,12.747L6.708,12.707L6.797,12.667L6.886,12.629L6.976,12.591L7.067,12.555L7.158,12.52L7.249,12.485L7.341,12.452L7.434,12.42L7.527,12.389L7.621,12.36L7.715,12.331L7.81,12.303L7.905,12.277L8.001,12.252L8.097,12.228L8.193,12.205L8.29,12.183L8.388,12.162L8.486,12.143L8.584,12.125L8.683,12.108L8.782,12.092L8.881,12.078L8.981,12.064L9.081,12.052L9.182,12.041L9.283,12.032L9.384,12.023L9.486,12.016L9.588,12.01L9.691,12.006L9.794,12.003L9.897,12.001L10,12L12.875,12L16,7L36,7L39.125,12ZM17.663,10L14.538,15L10.009,15L9.935,15L9.869,15.002L9.805,15.004L9.74,15.007L9.676,15.01L9.612,15.015L9.548,15.02L9.485,15.026L9.422,15.033L9.359,15.04L9.297,15.049L9.235,15.058L9.173,15.068L9.111,15.078L9.05,15.09L8.989,15.102L8.928,15.114L8.868,15.128L8.808,15.142L8.748,15.157L8.689,15.173L8.63,15.189L8.571,15.206L8.512,15.224L8.454,15.243L8.396,15.262L8.338,15.282L8.281,15.303L8.224,15.324L8.167,15.346L8.111,15.368L8.055,15.392L7.999,15.416L7.944,15.44L7.889,15.466L7.834,15.492L7.78,15.518L7.726,15.545L7.672,15.573L7.619,15.602L7.566,15.631L7.513,15.661L7.461,15.691L7.41,15.722L7.358,15.754L7.307,15.786L7.257,15.819L7.207,15.852L7.157,15.886L7.108,15.921L7.059,15.956L7.01,15.992L6.962,16.028L6.915,16.065L6.867,16.103L6.821,16.141L6.775,16.179L6.729,16.218L6.684,16.258L6.639,16.298L6.594,16.339L6.551,16.38L6.507,16.422L6.464,16.464L6.422,16.507L6.38,16.551L6.339,16.594L6.298,16.639L6.258,16.684L6.218,16.729L6.179,16.775L6.141,16.821L6.103,16.867L6.065,16.915L6.028,16.962L5.992,17.01L5.956,17.059L5.921,17.108L5.886,17.157L5.852,17.207L5.819,17.257L5.786,17.307L5.754,17.358L5.722,17.41L5.691,17.461L5.661,17.513L5.631,17.566L5.602,17.619L5.573,17.672L5.545,17.726L5.518,17.78L5.492,17.834L5.466,17.889L5.44,17.944L5.416,17.999L5.392,18.055L5.368,18.111L5.346,18.167L5.324,18.224L5.303,18.281L5.282,18.338L5.262,18.396L5.243,18.454L5.224,18.512L5.207,18.571L5.189,18.629L5.173,18.689L5.157,18.748L5.142,18.808L5.128,18.868L5.114,18.928L5.102,18.989L5.09,19.05L5.078,19.111L5.068,19.173L5.058,19.235L5.049,19.297L5.04,19.359L5.033,19.422L5.026,19.485L5.02,19.548L5.015,19.612L5.01,19.676L5.007,19.74L5.004,19.805L5.002,19.869L5,19.935L5,20.009L5,36.991L5,37.065L5.002,37.131L5.004,37.195L5.007,37.26L5.01,37.324L5.015,37.388L5.02,37.452L5.026,37.515L5.033,37.578L5.04,37.641L5.049,37.703L5.058,37.765L5.068,37.827L5.078,37.889L5.09,37.95L5.102,38.011L5.114,38.072L5.128,38.132L5.142,38.192L5.157,38.252L5.173,38.311L5.189,38.37L5.207,38.429L5.224,38.488L5.243,38.546L5.262,38.604L5.282,38.662L5.303,38.719L5.324,38.776L5.346,38.833L5.368,38.889L5.392,38.945L5.416,39.001L5.44,39.056L5.466,39.111L5.492,39.166L5.518,39.22L5.545,39.274L5.573,39.328L5.602,39.381L5.631,39.434L5.661,39.487L5.691,39.539L5.722,39.59L5.754,39.642L5.786,39.693L5.819,39.743L5.852,39.793L5.886,39.843L5.921,39.892L5.956,39.941L5.992,39.99L6.028,40.038L6.065,40.085L6.103,40.132L6.141,40.179L6.179,40.225L6.218,40.271L6.258,40.316L6.298,40.361L6.339,40.406L6.38,40.449L6.422,40.493L6.465,40.535L6.507,40.578L6.551,40.62L6.594,40.661L6.639,40.702L6.684,40.742L6.729,40.782L6.775,40.821L6.821,40.859L6.867,40.897L6.915,40.935L6.962,40.972L7.01,41.008L7.059,41.044L7.108,41.079L7.157,41.114L7.207,41.148L7.257,41.181L7.307,41.214L7.358,41.246L7.41,41.278L7.461,41.309L7.513,41.339L7.566,41.369L7.619,41.398L7.672,41.427L7.726,41.455L7.78,41.482L7.834,41.508L7.889,41.534L7.944,41.56L7.999,41.584L8.055,41.608L8.111,41.632L8.167,41.654L8.224,41.676L8.281,41.697L8.338,41.718L8.396,41.738L8.454,41.757L8.512,41.776L8.571,41.793L8.629,41.811L8.689,41.827L8.748,41.843L8.808,41.858L8.868,41.872L8.928,41.885L8.989,41.898L9.05,41.91L9.111,41.922L9.173,41.932L9.235,41.942L9.297,41.951L9.359,41.96L9.422,41.967L9.485,41.974L9.548,41.98L9.612,41.985L9.676,41.99L9.74,41.993L9.805,41.996L9.869,41.998L9.935,42L10.01,42L41.99,42L42.065,42L42.131,41.998L42.195,41.996L42.26,41.993L42.324,41.99L42.388,41.985L42.452,41.98L42.515,41.974L42.578,41.967L42.641,41.96L42.703,41.951L42.765,41.942L42.827,41.932L42.889,41.922L42.95,41.91L43.011,41.898L43.072,41.885L43.132,41.872L43.192,41.858L43.252,41.843L43.311,41.827L43.371,41.811L43.429,41.793L43.488,41.776L43.546,41.757L43.604,41.738L43.662,41.718L43.719,41.697L43.776,41.676L43.833,41.654L43.889,41.632L43.945,41.608L44.001,41.584L44.056,41.56L44.111,41.534L44.166,41.508L44.22,41.482L44.274,41.455L44.328,41.427L44.381,41.398L44.434,41.369L44.487,41.339L44.539,41.309L44.59,41.278L44.642,41.246L44.693,41.214L44.743,41.181L44.793,41.148L44.843,41.114L44.892,41.079L44.941,41.044L44.99,41.008L45.038,40.972L45.085,40.935L45.133,40.897L45.179,40.859L45.225,40.821L45.271,40.782L45.316,40.742L45.361,40.702L45.406,40.661L45.449,40.62L45.493,40.578L45.535,40.536L45.578,40.493L45.62,40.449L45.661,40.406L45.702,40.361L45.742,40.316L45.782,40.271L45.821,40.225L45.859,40.179L45.897,40.132L45.935,40.085L45.972,40.038L46.008,39.99L46.044,39.941L46.079,39.892L46.114,39.843L46.148,39.793L46.181,39.743L46.214,39.693L46.246,39.642L46.278,39.59L46.309,39.539L46.339,39.487L46.369,39.434L46.398,39.381L46.427,39.328L46.455,39.274L46.482,39.22L46.508,39.166L46.534,39.111L46.56,39.056L46.584,39.001L46.608,38.945L46.632,38.889L46.654,38.833L46.676,38.776L46.697,38.719L46.718,38.662L46.738,38.604L46.757,38.546L46.776,38.488L46.793,38.429L46.811,38.37L46.827,38.311L46.843,38.252L46.858,38.192L46.872,38.132L46.885,38.072L46.898,38.011L46.91,37.95L46.922,37.889L46.932,37.827L46.942,37.765L46.951,37.703L46.96,37.641L46.967,37.578L46.974,37.515L46.98,37.452L46.985,37.388L46.99,37.324L46.993,37.26L46.996,37.195L46.998,37.131L47,37.065L47,36.99L47,20.009L47,19.935L46.998,19.869L46.996,19.805L46.993,19.74L46.99,19.676L46.985,19.612L46.98,19.548L46.974,19.485L46.967,19.422L46.96,19.359L46.951,19.297L46.942,19.235L46.932,19.173L46.922,19.111L46.91,19.05L46.898,18.989L46.885,18.928L46.872,18.868L46.858,18.808L46.843,18.748L46.827,18.689L46.811,18.629L46.793,18.571L46.776,18.512L46.757,18.454L46.738,18.396L46.718,18.338L46.697,18.281L46.676,18.224L46.654,18.167L46.632,18.111L46.608,18.055L46.584,17.999L46.56,17.944L46.534,17.889L46.508,17.834L46.482,17.78L46.455,17.726L46.427,17.672L46.398,17.619L46.369,17.566L46.339,17.513L46.309,17.461L46.278,17.41L46.246,17.358L46.214,17.307L46.181,17.257L46.148,17.207L46.114,17.157L46.079,17.108L46.044,17.059L46.008,17.01L45.972,16.962L45.935,16.915L45.897,16.867L45.859,16.821L45.821,16.775L45.782,16.729L45.742,16.684L45.702,16.639L45.661,16.594L45.62,16.551L45.578,16.507L45.535,16.464L45.493,16.422L45.449,16.38L45.406,16.339L45.361,16.298L45.316,16.258L45.271,16.218L45.225,16.179L45.179,16.141L45.133,16.103L45.085,16.065L45.038,16.028L44.99,15.992L44.941,15.956L44.892,15.921L44.843,15.886L44.793,15.852L44.743,15.819L44.693,15.786L44.642,15.754L44.59,15.722L44.539,15.691L44.487,15.661L44.434,15.631L44.381,15.602L44.328,15.573L44.274,15.545L44.22,15.518L44.166,15.492L44.111,15.466L44.056,15.44L44.001,15.416L43.945,15.392L43.889,15.368L43.833,15.346L43.776,15.324L43.719,15.303L43.662,15.282L43.604,15.262L43.546,15.243L43.488,15.224L43.429,15.207L43.37,15.189L43.311,15.173L43.252,15.157L43.192,15.142L43.132,15.128L43.072,15.114L43.011,15.102L42.95,15.09L42.889,15.078L42.827,15.068L42.765,15.058L42.703,15.049L42.641,15.04L42.578,15.033L42.515,15.026L42.452,15.02L42.388,15.015L42.324,15.01L42.26,15.007L42.195,15.004L42.131,15.002L42.065,15L41.991,15L37.462,15L34.337,10L17.663,10Z" style="fill:rgb(255, 255, 255);"/>
            </g>
            <g id="椭圆-16" transform="matrix(1,0,0,1,2.00001,2.00001)">
                <path d="M26.13,16.921L26.259,16.923L26.388,16.927L26.517,16.933L26.646,16.941L26.774,16.949L26.901,16.96L27.028,16.972L27.155,16.986L27.282,17.001L27.407,17.018L27.533,17.036L27.658,17.056L27.782,17.078L27.906,17.101L28.029,17.125L28.152,17.151L28.274,17.178L28.396,17.207L28.517,17.238L28.638,17.27L28.758,17.303L28.877,17.338L28.996,17.374L29.114,17.411L29.232,17.45L29.349,17.491L29.465,17.533L29.58,17.576L29.695,17.62L29.81,17.666L29.923,17.713L30.036,17.762L30.148,17.812L30.259,17.863L30.37,17.916L30.48,17.969L30.589,18.024L30.697,18.081L30.805,18.138L30.911,18.197L31.017,18.257L31.122,18.319L31.227,18.381L31.33,18.445L31.433,18.51L31.535,18.576L31.636,18.643L31.736,18.712L31.835,18.782L31.933,18.852L32.031,18.924L32.127,18.998L32.223,19.072L32.317,19.147L32.411,19.224L32.504,19.301L32.596,19.38L32.687,19.459L32.777,19.54L32.866,19.622L32.953,19.705L33.04,19.789L33.126,19.874L33.211,19.96L33.295,20.047L33.378,20.134L33.46,20.223L33.541,20.313L33.62,20.404L33.699,20.496L33.776,20.589L33.853,20.683L33.928,20.777L34.002,20.873L34.076,20.969L34.148,21.067L34.218,21.165L34.288,21.264L34.357,21.364L34.424,21.465L34.49,21.567L34.555,21.67L34.619,21.773L34.681,21.878L34.743,21.983L34.803,22.089L34.862,22.195L34.919,22.303L34.976,22.411L35.031,22.52L35.084,22.63L35.137,22.741L35.188,22.852L35.238,22.964L35.287,23.077L35.334,23.19L35.38,23.305L35.424,23.42L35.467,23.535L35.509,23.651L35.55,23.768L35.589,23.886L35.626,24.004L35.662,24.123L35.697,24.242L35.73,24.362L35.762,24.483L35.793,24.604L35.822,24.726L35.849,24.848L35.875,24.971L35.899,25.094L35.922,25.218L35.944,25.342L35.964,25.467L35.982,25.593L35.999,25.718L36.014,25.845L36.028,25.972L36.04,26.099L36.051,26.226L36.059,26.354L36.067,26.483L36.073,26.612L36.077,26.741L36.079,26.87L36.08,27L36.079,27.13L36.077,27.259L36.073,27.388L36.067,27.517L36.059,27.646L36.051,27.774L36.04,27.901L36.028,28.028L36.014,28.155L35.999,28.282L35.982,28.407L35.964,28.533L35.944,28.658L35.922,28.782L35.899,28.906L35.875,29.029L35.849,29.152L35.822,29.274L35.793,29.396L35.762,29.517L35.73,29.638L35.697,29.758L35.662,29.877L35.626,29.996L35.589,30.114L35.55,30.232L35.509,30.349L35.467,30.465L35.424,30.58L35.38,30.695L35.334,30.81L35.287,30.923L35.238,31.036L35.188,31.148L35.137,31.259L35.084,31.37L35.031,31.48L34.976,31.589L34.919,31.697L34.862,31.805L34.803,31.911L34.743,32.017L34.681,32.122L34.619,32.227L34.555,32.33L34.49,32.433L34.424,32.535L34.357,32.636L34.288,32.736L34.218,32.835L34.148,32.933L34.076,33.031L34.002,33.127L33.928,33.223L33.853,33.317L33.776,33.411L33.699,33.504L33.62,33.596L33.541,33.687L33.46,33.777L33.378,33.866L33.295,33.954L33.211,34.04L33.126,34.126L33.04,34.211L32.954,34.295L32.866,34.378L32.777,34.46L32.687,34.541L32.596,34.62L32.504,34.699L32.411,34.776L32.317,34.853L32.223,34.928L32.127,35.002L32.031,35.076L31.933,35.148L31.835,35.218L31.736,35.288L31.636,35.357L31.535,35.424L31.433,35.49L31.33,35.555L31.227,35.619L31.122,35.681L31.017,35.743L30.911,35.803L30.805,35.862L30.697,35.919L30.589,35.976L30.48,36.031L30.37,36.084L30.259,36.137L30.148,36.188L30.036,36.238L29.923,36.287L29.81,36.334L29.695,36.38L29.58,36.424L29.465,36.467L29.349,36.509L29.232,36.55L29.114,36.589L28.996,36.626L28.877,36.662L28.758,36.697L28.638,36.73L28.517,36.762L28.396,36.793L28.274,36.822L28.152,36.849L28.029,36.875L27.906,36.899L27.782,36.922L27.658,36.944L27.533,36.964L27.407,36.982L27.281,36.999L27.155,37.014L27.028,37.028L26.901,37.04L26.774,37.051L26.646,37.059L26.517,37.067L26.388,37.073L26.259,37.077L26.13,37.079L26,37.08L25.87,37.079L25.741,37.077L25.612,37.073L25.483,37.067L25.354,37.059L25.226,37.051L25.099,37.04L24.972,37.028L24.845,37.014L24.719,36.999L24.593,36.982L24.467,36.964L24.342,36.944L24.218,36.922L24.094,36.899L23.971,36.875L23.848,36.849L23.726,36.822L23.604,36.793L23.483,36.762L23.362,36.73L23.242,36.697L23.123,36.662L23.004,36.626L22.886,36.589L22.768,36.55L22.651,36.509L22.535,36.467L22.42,36.424L22.305,36.38L22.19,36.334L22.077,36.287L21.964,36.238L21.852,36.188L21.741,36.137L21.63,36.084L21.52,36.031L21.411,35.976L21.303,35.919L21.195,35.862L21.089,35.803L20.983,35.743L20.878,35.681L20.773,35.619L20.67,35.555L20.567,35.49L20.465,35.424L20.364,35.357L20.264,35.288L20.165,35.218L20.067,35.148L19.969,35.076L19.873,35.002L19.777,34.928L19.683,34.853L19.589,34.776L19.496,34.699L19.404,34.62L19.313,34.541L19.223,34.46L19.134,34.378L19.047,34.295L18.96,34.211L18.874,34.126L18.789,34.04L18.705,33.954L18.622,33.866L18.54,33.777L18.459,33.687L18.38,33.596L18.301,33.504L18.224,33.411L18.147,33.317L18.072,33.223L17.998,33.127L17.924,33.031L17.852,32.933L17.782,32.835L17.712,32.736L17.643,32.636L17.576,32.535L17.51,32.433L17.445,32.33L17.381,32.227L17.319,32.122L17.257,32.017L17.197,31.911L17.138,31.805L17.081,31.697L17.024,31.589L16.969,31.48L16.916,31.37L16.863,31.259L16.812,31.148L16.762,31.036L16.713,30.923L16.666,30.81L16.62,30.695L16.576,30.58L16.533,30.465L16.491,30.349L16.45,30.232L16.411,30.114L16.374,29.996L16.338,29.877L16.303,29.758L16.27,29.638L16.238,29.517L16.207,29.396L16.178,29.274L16.151,29.152L16.125,29.029L16.101,28.906L16.078,28.782L16.056,28.658L16.036,28.533L16.018,28.407L16.001,28.282L15.986,28.155L15.972,28.028L15.96,27.901L15.949,27.774L15.941,27.646L15.933,27.517L15.927,27.388L15.923,27.259L15.921,27.13L15.92,27L15.921,26.87L15.923,26.741L15.927,26.612L15.933,26.483L15.941,26.354L15.949,26.226L15.96,26.099L15.972,25.972L15.986,25.845L16.001,25.718L16.018,25.593L16.036,25.467L16.056,25.342L16.078,25.218L16.101,25.094L16.125,24.971L16.151,24.848L16.178,24.726L16.207,24.604L16.238,24.483L16.27,24.362L16.303,24.242L16.338,24.123L16.374,24.004L16.411,23.886L16.45,23.768L16.491,23.651L16.533,23.535L16.576,23.42L16.62,23.305L16.666,23.19L16.713,23.077L16.762,22.964L16.812,22.852L16.863,22.741L16.916,22.63L16.969,22.52L17.024,22.411L17.081,22.303L17.138,22.195L17.197,22.089L17.257,21.983L17.319,21.878L17.381,21.773L17.445,21.67L17.51,21.567L17.576,21.465L17.643,21.364L17.712,21.264L17.782,21.165L17.852,21.067L17.924,20.969L17.998,20.873L18.072,20.777L18.147,20.683L18.224,20.589L18.301,20.496L18.38,20.404L18.459,20.313L18.54,20.223L18.622,20.134L18.705,20.047L18.789,19.96L18.874,19.874L18.96,19.789L19.047,19.705L19.134,19.622L19.223,19.54L19.313,19.459L19.404,19.38L19.496,19.301L19.589,19.224L19.683,19.147L19.777,19.072L19.873,18.998L19.969,18.924L20.067,18.852L20.165,18.782L20.264,18.712L20.364,18.643L20.465,18.576L20.567,18.51L20.67,18.445L20.773,18.381L20.878,18.319L20.983,18.257L21.089,18.197L21.195,18.138L21.303,18.081L21.411,18.024L21.52,17.969L21.63,17.916L21.741,17.863L21.852,17.812L21.964,17.762L22.077,17.713L22.19,17.666L22.305,17.62L22.42,17.576L22.535,17.533L22.651,17.491L22.768,17.45L22.886,17.411L23.004,17.374L23.123,17.338L23.242,17.303L23.362,17.27L23.483,17.238L23.604,17.207L23.726,17.178L23.848,17.151L23.971,17.125L24.094,17.101L24.218,17.078L24.342,17.056L24.467,17.036L24.593,17.018L24.718,17.001L24.845,16.986L24.972,16.972L25.099,16.96L25.226,16.949L25.354,16.941L25.483,16.933L25.612,16.927L25.741,16.923L25.87,16.921L26,16.92L26.13,16.921ZM25.908,19.921L25.817,19.922L25.726,19.925L25.635,19.929L25.544,19.935L25.454,19.941L25.364,19.948L25.275,19.957L25.186,19.966L25.097,19.977L25.009,19.989L24.921,20.002L24.833,20.016L24.746,20.031L24.659,20.047L24.573,20.064L24.487,20.082L24.401,20.102L24.316,20.122L24.231,20.143L24.146,20.165L24.062,20.189L23.979,20.213L23.896,20.238L23.813,20.265L23.731,20.292L23.649,20.32L23.567,20.35L23.486,20.38L23.406,20.411L23.326,20.443L23.246,20.476L23.167,20.51L23.089,20.545L23.011,20.581L22.933,20.618L22.856,20.656L22.78,20.694L22.704,20.734L22.628,20.774L22.553,20.816L22.479,20.858L22.405,20.901L22.332,20.945L22.259,20.99L22.187,21.035L22.115,21.082L22.044,21.129L21.974,21.177L21.904,21.226L21.835,21.276L21.766,21.327L21.698,21.378L21.631,21.43L21.565,21.483L21.499,21.537L21.433,21.592L21.369,21.647L21.305,21.703L21.241,21.76L21.179,21.818L21.117,21.876L21.055,21.935L20.995,21.995L20.935,22.055L20.876,22.117L20.818,22.179L20.76,22.241L20.703,22.305L20.647,22.369L20.592,22.433L20.537,22.499L20.483,22.565L20.43,22.631L20.378,22.698L20.327,22.766L20.276,22.835L20.226,22.904L20.177,22.974L20.129,23.044L20.082,23.115L20.035,23.187L19.99,23.259L19.945,23.332L19.901,23.405L19.858,23.479L19.816,23.553L19.774,23.628L19.734,23.704L19.694,23.78L19.656,23.856L19.618,23.933L19.581,24.011L19.545,24.089L19.51,24.167L19.476,24.246L19.443,24.326L19.411,24.406L19.38,24.486L19.35,24.567L19.32,24.649L19.292,24.731L19.265,24.813L19.238,24.896L19.213,24.979L19.189,25.062L19.165,25.146L19.143,25.231L19.122,25.316L19.101,25.401L19.082,25.487L19.064,25.573L19.047,25.659L19.031,25.746L19.016,25.833L19.002,25.921L18.989,26.009L18.977,26.097L18.966,26.186L18.957,26.275L18.948,26.364L18.941,26.454L18.935,26.544L18.929,26.635L18.925,26.726L18.922,26.817L18.921,26.908L18.92,27L18.921,27.092L18.922,27.183L18.925,27.274L18.929,27.365L18.935,27.456L18.941,27.546L18.948,27.636L18.957,27.725L18.966,27.814L18.977,27.903L18.989,27.991L19.002,28.079L19.016,28.167L19.031,28.254L19.047,28.341L19.064,28.427L19.082,28.513L19.102,28.599L19.122,28.684L19.143,28.769L19.165,28.854L19.189,28.938L19.213,29.021L19.238,29.104L19.265,29.187L19.292,29.269L19.32,29.351L19.35,29.433L19.38,29.514L19.411,29.594L19.443,29.674L19.476,29.754L19.51,29.833L19.545,29.911L19.581,29.989L19.618,30.067L19.656,30.144L19.694,30.22L19.734,30.296L19.774,30.372L19.816,30.447L19.858,30.521L19.901,30.595L19.945,30.668L19.99,30.741L20.035,30.813L20.082,30.885L20.129,30.956L20.177,31.026L20.226,31.096L20.276,31.165L20.327,31.234L20.378,31.302L20.43,31.369L20.483,31.435L20.537,31.501L20.592,31.567L20.647,31.631L20.703,31.695L20.76,31.759L20.818,31.821L20.876,31.883L20.935,31.945L20.995,32.005L21.055,32.065L21.117,32.124L21.179,32.182L21.241,32.24L21.305,32.297L21.369,32.353L21.433,32.408L21.499,32.463L21.565,32.517L21.631,32.57L21.698,32.622L21.766,32.673L21.835,32.724L21.904,32.774L21.974,32.823L22.044,32.871L22.115,32.918L22.187,32.965L22.259,33.01L22.332,33.055L22.405,33.099L22.479,33.142L22.553,33.184L22.628,33.226L22.704,33.266L22.78,33.306L22.856,33.344L22.933,33.382L23.011,33.419L23.089,33.455L23.167,33.49L23.246,33.524L23.326,33.557L23.406,33.589L23.486,33.62L23.567,33.65L23.649,33.68L23.731,33.708L23.813,33.735L23.896,33.762L23.979,33.787L24.062,33.811L24.146,33.835L24.231,33.857L24.316,33.878L24.401,33.898L24.487,33.918L24.573,33.936L24.659,33.953L24.746,33.969L24.833,33.984L24.921,33.998L25.009,34.011L25.097,34.023L25.186,34.034L25.275,34.043L25.364,34.052L25.454,34.059L25.544,34.065L25.635,34.071L25.726,34.075L25.817,34.078L25.908,34.079L26,34.08L26.092,34.079L26.183,34.078L26.274,34.075L26.365,34.071L26.456,34.065L26.546,34.059L26.636,34.052L26.725,34.043L26.814,34.034L26.903,34.023L26.991,34.011L27.079,33.998L27.167,33.984L27.254,33.969L27.341,33.953L27.427,33.936L27.513,33.918L27.599,33.898L27.684,33.878L27.769,33.857L27.854,33.835L27.938,33.811L28.021,33.787L28.104,33.762L28.187,33.735L28.269,33.708L28.351,33.68L28.433,33.65L28.514,33.62L28.594,33.589L28.674,33.557L28.754,33.524L28.833,33.49L28.911,33.455L28.989,33.419L29.067,33.382L29.144,33.344L29.22,33.306L29.296,33.266L29.372,33.226L29.447,33.184L29.521,33.142L29.595,33.099L29.668,33.055L29.741,33.01L29.813,32.965L29.885,32.918L29.956,32.871L30.026,32.823L30.096,32.774L30.165,32.724L30.234,32.673L30.302,32.622L30.369,32.57L30.435,32.517L30.501,32.463L30.567,32.408L30.631,32.353L30.695,32.297L30.759,32.24L30.821,32.182L30.883,32.124L30.945,32.065L31.005,32.005L31.065,31.945L31.124,31.883L31.182,31.821L31.24,31.759L31.297,31.695L31.353,31.631L31.408,31.567L31.463,31.501L31.517,31.435L31.57,31.369L31.622,31.302L31.673,31.234L31.724,31.165L31.774,31.096L31.823,31.026L31.871,30.956L31.918,30.885L31.965,30.813L32.01,30.741L32.055,30.668L32.099,30.595L32.142,30.521L32.184,30.447L32.226,30.372L32.266,30.296L32.306,30.22L32.344,30.144L32.382,30.067L32.419,29.989L32.455,29.911L32.49,29.833L32.524,29.754L32.557,29.674L32.589,29.594L32.62,29.514L32.65,29.433L32.68,29.351L32.708,29.269L32.735,29.187L32.762,29.104L32.787,29.021L32.811,28.938L32.835,28.854L32.857,28.769L32.878,28.684L32.898,28.599L32.918,28.513L32.936,28.427L32.953,28.341L32.969,28.254L32.984,28.167L32.998,28.079L33.011,27.991L33.023,27.903L33.034,27.814L33.043,27.725L33.052,27.636L33.059,27.546L33.065,27.456L33.071,27.365L33.075,27.274L33.078,27.183L33.079,27.092L33.08,27L33.079,26.908L33.078,26.817L33.075,26.726L33.071,26.635L33.065,26.544L33.059,26.454L33.052,26.364L33.043,26.275L33.034,26.186L33.023,26.097L33.011,26.009L32.998,25.921L32.984,25.833L32.969,25.746L32.953,25.659L32.936,25.573L32.918,25.487L32.898,25.401L32.878,25.316L32.857,25.231L32.835,25.146L32.811,25.062L32.787,24.979L32.762,24.896L32.735,24.813L32.708,24.731L32.68,24.649L32.65,24.567L32.62,24.486L32.589,24.406L32.557,24.326L32.524,24.246L32.49,24.167L32.455,24.089L32.419,24.011L32.382,23.933L32.344,23.856L32.306,23.78L32.266,23.704L32.226,23.628L32.184,23.553L32.142,23.479L32.099,23.405L32.055,23.332L32.01,23.259L31.965,23.187L31.918,23.115L31.871,23.044L31.823,22.974L31.774,22.904L31.724,22.835L31.673,22.766L31.622,22.698L31.57,22.631L31.517,22.565L31.463,22.499L31.408,22.433L31.353,22.369L31.297,22.305L31.24,22.241L31.182,22.179L31.124,22.117L31.065,22.055L31.005,21.995L30.944,21.935L30.883,21.876L30.821,21.818L30.759,21.76L30.695,21.703L30.631,21.647L30.567,21.592L30.501,21.537L30.435,21.483L30.369,21.43L30.302,21.378L30.234,21.327L30.165,21.276L30.096,21.226L30.026,21.177L29.956,21.129L29.885,21.082L29.813,21.035L29.741,20.99L29.668,20.945L29.595,20.901L29.521,20.858L29.447,20.816L29.372,20.774L29.296,20.734L29.22,20.694L29.144,20.656L29.067,20.618L28.989,20.581L28.911,20.545L28.833,20.51L28.754,20.476L28.674,20.443L28.594,20.411L28.514,20.38L28.433,20.35L28.351,20.32L28.269,20.292L28.187,20.265L28.104,20.238L28.021,20.213L27.938,20.189L27.854,20.165L27.769,20.143L27.684,20.122L27.599,20.102L27.513,20.082L27.427,20.064L27.341,20.047L27.254,20.031L27.167,20.016L27.079,20.002L26.991,19.989L26.903,19.977L26.814,19.966L26.725,19.957L26.636,19.948L26.546,19.941L26.456,19.935L26.365,19.929L26.274,19.925L26.183,19.922L26.092,19.921L26,19.92L25.908,19.921Z" style="fill:rgb(255, 255, 255);"/>
            </g>
            <g id="圆角矩形-31" transform="matrix(1,0,0,1,2.00001,2.00001)">
                <path d="M44,19.5C44,18.672 43.328,18 42.5,18L39.5,18C38.672,18 38,18.672 38,19.5C38,20.328 38.672,21 39.5,21L42.5,21C43.328,21 44,20.328 44,19.5Z" style="fill:rgb(255, 255, 255);"/>
            </g>
        </g>
    </g>
</svg>
